<svg xmlns="http://www.w3.org/2000/svg" viewBox="0 0 900 720" role="img" aria-labelledby="title desc">
  <title id="title">Logo Sprachnest und mehr</title>
  <desc id="desc">Drzewo z liśćmi i napisem Sprachnest und mehr ein W.E.G. für alle.</desc>
  <rect width="900" height="720" fill="#ffffff"/>

  <g transform="translate(290 45)">
    <path d="M160 40 C145 92 138 132 136 184 C134 250 126 308 112 356 L140 356 C146 315 153 277 158 236 C163 277 171 315 178 356 L208 356 C194 307 186 250 186 184 C188 132 180 92 164 40 Z" fill="#c77f41"/>

    <g fill="#6fa67f">
      <ellipse cx="22" cy="142" rx="20" ry="30" transform="rotate(-30 22 142)"/>
      <ellipse cx="57" cy="115" rx="19" ry="29" transform="rotate(-24 57 115)"/>
      <ellipse cx="92" cy="96" rx="18" ry="28" transform="rotate(-15 92 96)"/>
      <ellipse cx="128" cy="84" rx="18" ry="28" transform="rotate(-8 128 84)"/>
      <ellipse cx="198" cy="84" rx="18" ry="28" transform="rotate(8 198 84)"/>
      <ellipse cx="234" cy="96" rx="18" ry="28" transform="rotate(15 234 96)"/>
      <ellipse cx="269" cy="115" rx="19" ry="29" transform="rotate(24 269 115)"/>
      <ellipse cx="304" cy="142" rx="20" ry="30" transform="rotate(30 304 142)"/>
      <ellipse cx="50" cy="194" rx="19" ry="29" transform="rotate(-24 50 194)"/>
      <ellipse cx="98" cy="174" rx="18" ry="28" transform="rotate(-12 98 174)"/>
      <ellipse cx="228" cy="174" rx="18" ry="28" transform="rotate(12 228 174)"/>
      <ellipse cx="276" cy="194" rx="19" ry="29" transform="rotate(24 276 194)"/>
    </g>

    <g fill="#dfc83d">
      <ellipse cx="0" cy="173" rx="18" ry="28" transform="rotate(-42 0 173)"/>
      <ellipse cx="326" cy="173" rx="18" ry="28" transform="rotate(42 326 173)"/>
      <ellipse cx="164" cy="64" rx="18" ry="28"/>
      <ellipse cx="140" cy="152" rx="16" ry="25" transform="rotate(-9 140 152)"/>
      <ellipse cx="188" cy="152" rx="16" ry="25" transform="rotate(9 188 152)"/>
    </g>

    <g stroke="#c77f41" stroke-width="8" stroke-linecap="round" fill="none">
      <path d="M160 148 L60 108"/>
      <path d="M164 138 L108 90"/>
      <path d="M168 138 L220 90"/>
      <path d="M172 148 L272 108"/>
      <path d="M157 172 L70 174"/>
      <path d="M173 172 L258 174"/>
    </g>

    <g fill="#c77f41" font-family="Montserrat, Arial, sans-serif" font-size="42" font-weight="700">
      <text x="54" y="392">A</text>
      <text x="98" y="423">B</text>
      <text x="152" y="439">C</text>
      <text x="204" y="423">G</text>
      <text x="252" y="392">R</text>
    </g>
  </g>

  <text x="120" y="545" fill="#0f5f5c" font-family="Montserrat, Arial, sans-serif" font-size="90" font-weight="800">SPRACH</text>
  <text x="563" y="545" fill="#e0aa35" font-family="Montserrat, Arial, sans-serif" font-size="90" font-weight="800">nest</text>
  <text x="328" y="615" fill="#0f5f5c" font-family="Montserrat, Arial, sans-serif" font-size="70" font-weight="700">und mehr</text>
  <text x="200" y="680" fill="#0f5f5c" font-family="Montserrat, Arial, sans-serif" font-size="66" font-weight="600">ein W.E.G. für alle</text>
</svg>
